<?xml version="1.0" encoding="utf-8"?>
<svg version="1.1" xmlns:xlink="http://www.w3.org/1999/xlink" width="40px" height="50px" xmlns="http://www.w3.org/2000/svg">
  <defs>
    <filter x="504px" y="86px" width="40px" height="50px" filterUnits="userSpaceOnUse" id="filter279">
      <feOffset dx="1" dy="1" in="SourceAlpha" result="shadowOffsetInner" />
      <feGaussianBlur stdDeviation="2.5" in="shadowOffsetInner" result="shadowGaussian" />
      <feComposite in2="shadowGaussian" operator="atop" in="SourceAlpha" result="shadowComposite" />
      <feColorMatrix type="matrix" values="0 0 0 0 0  0 0 0 0 0  0 0 0 0 0  0 0 0 0.698039215686274 0  " in="shadowComposite" />
    </filter>
    <g id="widget280">
      <path d="M 523 129.036928468354  C 517.2 119.40734059591  508.5 113.629587872444  508.5 104  C 508.5 98.9857142857143  511.4 90.5  523 90.5  C 534.6 90.5  537.5 98.9857142857143  537.5 104  C 537.5 113.629587872444  528.8 119.40734059591  523 129.036928468354  Z " fill-rule="nonzero" fill="#009dd9" stroke="none" />
      <path d="M 523 130  C 517 120  508 114  508 104  C 508 98.8  511 90  523 90  C 535 90  538 98.8  538 104  C 538 114  529 120  523 130  Z M 523 128.073856936707  C 528.6 118.81468119182  537 113.259175744887  537 104  C 537 99.1714285714286  534.2 91  523 91  C 511.8 91  509 99.1714285714286  509 104  C 509 113.259175744887  517.4 118.81468119182  523 128.073856936707  Z " fill-rule="nonzero" fill="#ffffff" stroke="none" />
    </g>
  </defs>
  <g transform="matrix(1 0 0 1 -504 -86 )">
    <use xlink:href="#widget280" filter="url(#filter279)" />
    <use xlink:href="#widget280" />
  </g>
</svg>