<?xml version="1.0" encoding="utf-8"?>
<svg version="1.1" xmlns:xlink="http://www.w3.org/1999/xlink" width="16px" height="15px" xmlns="http://www.w3.org/2000/svg">
  <g transform="matrix(1 0 0 1 -47 -140 )">
    <path d="M 15.7250859106529 0.901803607214428  C 15.9083619702176 1.00200400801603  16 1.11723446893787  16 1.24749498997996  C 16 1.37775551102204  15.9083619702176 1.49298597194389  15.7250859106529 1.59318637274549  L 4.92096219931272 7.5  L 15.7250859106529 13.4068136272545  C 15.9083619702176 13.5070140280561  16 13.622244488978  16 13.75250501002  C 16 13.8827655310621  15.9083619702176 13.997995991984  15.7250859106529 14.0981963927856  L 14.3505154639175 14.8496993987976  C 14.1672394043528 14.9498997995992  13.9564719358534 15  13.7182130584192 15  C 13.4799541809851 15  13.2691867124857 14.9498997995992  13.085910652921 14.8496993987976  L 0.274914089347079 7.84569138276553  C 0.0916380297823597 7.74549098196393  0 7.63026052104208  0 7.5  C 0 7.36973947895792  0.0916380297823597 7.25450901803607  0.274914089347079 7.15430861723447  L 13.085910652921 0.150300601202405  C 13.2691867124857 0.0501002004008011  13.4799541809851 0  13.7182130584192 0  C 13.9564719358534 0  14.1672394043528 0.0501002004008011  14.3505154639175 0.150300601202405  L 15.7250859106529 0.901803607214428  Z " fill-rule="nonzero" fill="#333333" stroke="none" transform="matrix(1 0 0 1 47 140 )" />
  </g>
</svg>